<?xml version="1.0" encoding="utf-8"?>
<!-- Generator: Adobe Illustrator 19.0.1, SVG Export Plug-In . SVG Version: 6.00 Build 0)  -->
<svg version="1.1" id="Layer_1" xmlns="http://www.w3.org/2000/svg" xmlns:xlink="http://www.w3.org/1999/xlink" x="0px" y="0px"
	 viewBox="-277 280 144.9 142" style="enable-background:new -277 280 144.9 142;" xml:space="preserve">
    <path fill="#A6AAB7" id="XMLID_164_" d="M-203.4,414.9c-14.6-0.4-29.3-0.9-43.9-1.3c-2.8-0.1-5.3-0.9-7.6-2.5c-4.9-3.3-7.8-7.9-8.2-13.8
	c-0.3-4.2-0.4-8.4-0.1-12.6c1.1-13.4,1.2-26.9,1.2-40.3c0.1-9.4-0.1-18.9,0-28.3c0-3.7,0.3-7.5,0.9-11.2c0.6-3.8,2.8-6.8,6.3-8.6
	c2.3-1.2,4.7-2.1,7.1-3.2c0.4-0.2,0.8-0.2,1.2-0.2c26.8-0.5,53.5-1,80.3-1.4c3.9-0.1,7.8,0.2,11.6,0.9c7.1,1.1,11.5,5.6,13.1,12.5
	c0.7,2.8,1.1,5.8,1.1,8.7c0.2,19.4,0.3,38.8,0.4,58.2c0.1,7.7,0.2,15.4,0.1,23.2c0,3.7-0.5,7.3-1.8,10.7c-1.8,4.8-5.3,7.7-10.2,8.9
	c-4.5,1.1-9,1.3-13.6,1.2c-12.6-0.2-25.2-0.4-37.8-0.6C-203.4,415-203.4,415-203.4,414.9z M-204.3,409.7c0-0.1,0-0.2,0-0.2
	c12.5,0,25,0.1,37.4,0c3.9,0,7.8-0.3,11.6-0.8c5.9-0.9,9-4.2,9.9-10.1c0.4-2.7,0.6-5.5,0.6-8.2c0-10-0.3-19.9-0.3-29.9
	c0-15.5,0.2-31,0.3-46.4c0-3.6-0.1-7.3-1.2-10.8c-1.1-3.4-3.3-5.8-6.8-6.6c-3.1-0.7-6.3-1.1-9.5-1.2c-5.4-0.2-10.8,0-16.2,0
	c-22.2-0.1-44.3-0.3-66.5-0.5c-0.6,0-1.3,0-1.9,0.2c-2,0.8-3.9,1.6-5.8,2.5c-2.9,1.4-4.9,3.8-5.5,7c-0.5,2.8-0.9,5.6-0.9,8.4
	c-0.1,11.6,0,23.1,0,34.7c-0.1,12.3-0.2,24.6-0.3,36.9c0,3.9,0.1,7.8,0.3,11.7c0.2,2.9,0.9,5.7,2.8,8c2.6,3.3,5.7,5.4,10.3,5.4
	C-232.2,409.6-218.3,409.7-204.3,409.7z"/>
    <path fill="#A6AAB7" id="XMLID_131_" d="M-199.8,372.4c0.2-8.6,0.4-17.1,0.7-25.7c0-1.2-0.4-1.6-1.5-1.6c-2.5,0-5-0.1-7.6-0.2c-1.7,0-1.9-0.3-1.9-2
	c0-3.4,0-6.9,0-10.3c0-1.7,0.5-2.2,2.2-2.3c2.4-0.1,4.8-0.1,7.2-0.1c1.1,0,1.4-0.3,1.4-1.4c0.2-3.5,0.3-7.1,1.1-10.6
	c1.5-6.7,6.4-10.2,12.5-12.5c4.5-1.7,9.2-1.7,13.9-1.8c1.4,0,2.8,0,4.2-0.1c1.3,0,2.2,0.6,2.6,1.7c0.4,1.1,0.7,2.2,0.8,3.4
	c0.1,3.7,0,7.4-0.1,11c0,1.4-0.7,1.9-2.2,1.9c-2.1,0-4.2,0-6.2,0.1c-2.2,0.2-3.1,1.2-3.5,3.4c-0.6,3.5-0.5,3.5,3,3.5
	c2.4,0,4.7-0.1,7.1-0.1c2.3,0,3,0.8,3,3c0,3.4,0.1,6.9,0.1,10.3c0,2.9-1.1,4.1-4,4.3c-2.5,0.1-5,0.3-7.5,0.3c-1.1,0-1.3,0.4-1.3,1.4
	c0,16.1-0.1,32.1-0.1,48.2c0,0.6,0,1.2,0,1.8c-0.2,2.1-1.5,3.4-3.6,3.4c-6-0.2-11.9-0.5-17.9-0.7c-2.3-0.1-3-0.9-3-3.3
	c0.2-8.5,0.4-16.9,0.7-25.4C-200,372.4-199.9,372.4-199.8,372.4z M-196.4,370c0,0,0.1,0,0.1,0c0.1,8.6,0.3,17.1,0.4,25.7
	c0,1,0.3,1.4,1.4,1.4c4-0.1,8-0.2,12-0.1c1.1,0,1.4-0.4,1.4-1.5c0-8.5,0.1-17,0.1-25.6c0-8.2,0.1-16.5,0.1-24.7
	c0-2.7,1.3-3.9,3.9-3.8c2.5,0,5,0.1,7.6,0.2c0.9,0,1.3-0.2,1.2-1.2c-0.1-1.8-0.1-3.7,0-5.5c0-1.1-0.4-1.4-1.4-1.4
	c-2.8,0-5.6-0.1-8.4-0.3c-2.3-0.1-3.1-1-3.1-3.2c0-1.5,0.1-3,0.3-4.5c0.5-4.1,2.8-6.4,6.9-6.9c1.7-0.2,3.4-0.1,5-0.2
	c0.4,0,1-0.4,1-0.6c0.2-2.9,0.4-5.7,0.6-8.6c0-0.9-0.4-1.2-1.3-1.2c-2.6,0-5.3,0-7.9-0.1c-3.2-0.2-6.4,0.4-9.5,1.3
	c-5.5,1.5-8.9,5-9.8,10.6c-0.6,3.5-0.8,7.1-1,10.6c-0.1,1.8-0.3,2.1-2.1,2.1c-2.4,0.1-4.9,0.2-7.3,0.2c-0.9,0-1.2,0.3-1.2,1.2
	c0.1,2.6,0.1,5.1,0,7.7c0,0.8,0.3,1.1,1.1,1.1c2.4-0.1,4.8-0.2,7.2-0.3c2.4-0.1,2.7,0.2,2.7,2.6C-196.4,353.1-196.4,361.5-196.4,370
	z"/>
</svg>
