<?xml version="1.0" encoding="utf-8"?>
<!-- Generator: Adobe Illustrator 19.0.1, SVG Export Plug-In . SVG Version: 6.00 Build 0)  -->
<svg version="1.1" id="Layer_2" xmlns="http://www.w3.org/2000/svg" xmlns:xlink="http://www.w3.org/1999/xlink" x="0px" y="0px"
	 viewBox="-277 280 144.9 142" style="enable-background:new -277 280 144.9 142;" xml:space="preserve">
    <path fill="#A6AAB7" id="XMLID_173_" d="M-262.2,390.7c0-1.3,0.2-2.7,0-4c-1.3-6.9-0.3-13.8-0.6-20.6c-0.1-2.7,0-5.4,0-8.2c0-0.5-0.3-1-0.4-1.6
	c-0.1-0.4-0.3-0.8-0.3-1.1c0-5.4,0.2-10.7-0.1-16.1c-0.2-3.9-0.3-7.8-0.4-11.6c0-1.6-0.2-3.2-0.4-4.7c0-0.3-0.3-0.6-0.3-0.9
	c-0.1-0.8-0.4-1.7-0.2-2.4c0.2-1.3,0.7-2.5,0.9-3.7c0.3-1.6,0.3-3.2,0.5-4.8c0.1-0.9,0.4-1.8,0.6-2.7c0-0.2,0.1-0.4,0.1-0.6
	c-0.3-2.2,1.1-4,1.8-5.9c0.5-1.4,1.2-2.7,1.8-4c0.9-1.7,2.3-2.7,4-3.3c2.1-0.8,4.1-1.7,6.1-2.6c0.2-0.1,0.4-0.2,0.5-0.2
	c2.1-0.2,4.1-0.5,6.2-0.7c2.8-0.3,5.6-0.5,8.4-0.8c2.4-0.2,4.9-0.5,7.3-0.7c3.3-0.3,6.6-0.7,10-0.8c3.4-0.1,6.8-0.6,10.1,0.3
	c0.3,0.1,0.6,0.1,1,0.1c6.4,0,12.8-0.1,19.2,0c4.8,0.1,9.7,0.1,14.5,0.5c1.9,0.2,3.8,0.5,5.8,0.5c1.6,0,3.3-0.2,4.9,0
	c1.9,0.2,3.7,0.8,5.5,1.3c0.2,0.1,0.5,0.2,0.7,0.2c1.7-0.2,2.9,0.9,4.2,1.6c2.2,1.3,4.3,2.8,5.9,4.8c0.3,0.4,0.5,0.9,0.6,1.5
	c0.3,1.4,0.6,2.9,0.8,4.4c0.1,0.4,0.1,0.7,0.1,1.1c0,2.9-0.5,5.8,0.1,8.6c0.4,2.2-0.2,4.6,1,6.7c0.1,0.2,0.2,0.6,0.1,0.8
	c-1.2,2-0.2,4.2-0.7,6.2c-0.6,2.5-0.3,5-0.6,7.5c-0.2,1.5-0.2,3-0.1,4.5c0.1,1.2-0.1,2.3,0,3.5c0.1,1.6,0.4,3.3,0.6,4.9
	c0,0.2,0.1,0.5,0.1,0.7c-0.7,1.7-0.7,3.5,0,5.2c0.1,0.2,0.2,0.4,0.1,0.6c-0.6,1.1-0.4,2.1-0.1,3.2c0.4,1.7,0.1,3.6,0.1,5.4
	c0,1.2-0.3,2.4,0.5,3.6c0.2,0.3,0,0.9,0,1.4c-0.1,0.9-0.5,1.8-0.5,2.7c0,4.7,0.2,9.4,0,14c0,1.4,0.4,3.1-0.6,4.4
	c-0.1,0.1-0.1,0.5,0,0.7c0.4,0.7,0.2,1.2-0.2,1.7c-0.2,0.2-0.3,0.6-0.2,0.9c0.6,2-0.5,3.8-1,5.6c-0.2,0.8-0.6,1.6-0.9,2.4
	c-0.8,2.4-2.3,4.2-3.9,6.1c-1.2,1.5-2.6,2.6-4.4,3c-2.1,0.5-4.1,1.1-6.2,1.3c-2.6,0.3-5.2,0.3-7.8,0.6c-1.8,0.2-3.6,0.8-5.4,1
	c-2.1,0.3-4.3,0.2-6.4,0.5c-1.2,0.1-2.4,0.6-3.6,0.8c-0.3,0.1-0.7,0.2-1,0.1c-2-0.7-3.9-0.8-5.9,0.2c-0.1,0.1-0.3,0.1-0.5,0.1
	c-3,0.2-6,0.2-9,0.5c-2.5,0.2-5,0.7-7.5,0.9c-1.6,0.1-3.3-0.2-4.9,0.1c-6.4,1.2-12.8,0.2-19.2,0.5c-2.2,0.1-4.3-0.4-6.4-1
	c-2.3-0.7-4.6-1.1-6.8-1.8c-2.2-0.7-4.2-1.9-6.4-2.5c-2.8-0.8-4.6-2.7-6.3-4.7c-1.5-1.7-3.1-3.5-3.4-6c-0.2-1.6-1-3.1-1.3-4.7
	C-262.3,393.7-262.1,392.2-262.2,390.7C-262.1,390.7-262.2,390.7-262.2,390.7z M-148.3,345.7C-148.3,345.7-148.3,345.7-148.3,345.7
	c0.1-4.7,0.1-9.4,0.1-14c0-0.8-0.2-1.4-1.1-1.5c-0.3,0-0.6-0.4-0.9-0.5c-0.9-0.2-1.8-0.4-2.6-0.4c-2.7,0-5.5,0.2-8.2,0.3
	c-0.7,0-1.3,0.2-2,0.3c-0.7,0.1-1.5,0.2-2.2,0.1c-1.3-0.2-2.5-0.7-3.8-0.8c-1.6,0-3.2,0.2-4.7,0.4c-1.7,0.2-3.5,0.5-5.2,0.6
	c-1.5,0.1-3.1,0.4-4.3-0.8c-0.8-0.8-1.6-1.7-2.5-2.5c-1.4-1.3-2.9-2.5-4.4-3.7c-0.5-0.4-1.1-0.6-1.7-0.8c-0.9-0.3-1.9-0.7-2.9-0.9
	c-0.6-0.2-1.4,0-2-0.3c-2.1-1.1-4.2-2.1-6.7-2.7c-2.7-0.6-5.1,0-7.4,1.1c-2.6,1.3-5.1,2.7-7.7,4c-0.8,0.4-1.5,0.9-2.2,1.3
	c-1.3,0.6-2.6,1.1-3.9,1.6c-0.2,0.1-0.5,0.2-0.8,0.1c-1.5-0.2-2,0.3-2.1,1.8c-0.1,1.3-0.1,2.6-0.5,3.8c-0.6,1.8-1.6,3.5-2.5,5.3
	c-0.1,0.3-0.4,0.5-0.7,0.6c-2,0.6-3.9,1.3-5.9,1.8c-1.2,0.3-2.4,0.2-3.6,0.4c-1.7,0.2-3.4,0.5-5.1,0.7c-0.5,0.1-1,0.2-1.5,0.3
	c-3.1,1-5.4-1.1-5.5-4c-0.1-1.9-0.2-3.7-0.5-5.5c-0.1-0.8-0.4-1.5-0.8-2.2c-0.8-1.4-2.2-1-3.4-1c-0.9,0-1.2,0.5-1.2,1.3
	c0,1.1,0,2.2,0,3.3c0,3.6,0,7.2,0,10.8c0,0.4,0.2,0.8,0.2,1.1c0.1,0.8,0.1,1.7,0.2,2.5c0,0.6,0,1.3,0,1.9c0,0.4,0.2,0.8,0.2,1.2
	c0,2.3,0,4.6,0,7c0,0.8,0.3,1.6,0.5,2.4c0,0.4-0.1,0.7-0.1,1.1c0,1.8-0.2,3.6,0,5.4c0.1,0.6,0.4,1-0.1,1.6c-0.2,0.2-0.2,0.5-0.2,0.8
	c0,3,0.1,5.9,0.2,8.9c0,1.2,0.3,2.3,0.4,3.5c0.1,4.5,0.1,9,0.4,13.5c0.2,3,1.4,5.5,3.6,7.7c0.6,0.6,1.2,1.3,1.9,1.8
	c0.6,0.5,1.3,0.9,2,1.2c1.5,0.6,3.2,0.9,4.4,1.8c2.4,1.7,5.1,2,7.8,2.3c1.3,0.1,2.4,1.2,3.9,0.7c0.8-0.2,1.7,0,2.5,0.1
	c0.5,0,1,0,1.5,0.1c1,0.2,2,0.9,2.8,0.7c1.5-0.3,2.9,0.1,4.3,0c1.6-0.1,3.1-0.4,4.7-0.6c3.5-0.3,7,0.4,10.6-0.6
	c1.8-0.5,3.7-0.4,5.6-0.5c3.4-0.3,6.8-0.3,10.3-1c3-0.6,6.2-0.3,9.3-0.5c2.2-0.1,4.4-0.3,6.6-0.5c0.1,0,0.2-0.1,0.3-0.1
	c2.1-0.4,4.3-1,6.4-1.1c2-0.1,4.1-0.6,6.1-0.1c0.4,0.1,0.8,0,1.2-0.1c1.5-0.5,3-1,4.5-1.6c1.9-0.8,3.9-1.3,4.9-3.3
	c0.3-0.6,0.6-1.1,0.9-1.7c1-1.9,2.6-3.5,2.5-5.9c0-1.1-0.1-2.2,0.3-3.2c1-2.3-0.3-4.8,1.1-7c-0.4-5.7,0.6-11.3-0.6-17
	c-0.5-2.3-0.3-4.7-0.5-7.1C-148.6,355-148.3,350.3-148.3,345.7z M-148.7,304.9c0.1,0,0.2-0.1,0.3-0.1c-0.3-1.2-0.6-2.5-1-3.7
	c-0.6-1.9-2-3-3.9-3.6c-1-0.4-1.9-0.9-2.9-1.2c-1-0.3-2-0.5-3-0.7c-0.6-0.1-1.3,0-2-0.1c-2.9-0.3-5.8-0.7-8.7-0.9
	c-3.3-0.3-6.7-0.5-10-0.7c-0.1,0-0.2-0.1-0.3-0.1c-1.3-0.2-2.7-0.3-4-0.5c-0.1,0-0.2,0-0.3,0.1c-0.7,0.6-1.3,0.6-2,0
	c-0.2-0.2-0.6-0.1-0.9-0.1c-2.6,0-5.3,0-7.9,0c-1.9,0-3.8,0.5-5.9,0c-2-0.5-4.2-0.3-6.3-0.3c-4.1,0.1-8.1,0.2-12.2,0.4
	c-0.3,0-0.7,0.2-1,0.3c-1.7,0.2-3.3,0.6-5,0.6c-0.8,0-1.4,0.1-1.7,0.7c-0.4,0.7-0.6,1.5-0.7,2.2c-0.2,1.3-0.5,2.6-0.3,3.9
	c0.3,1.7,0.6,3.3-0.1,4.9c-0.1,0.3,0.1,0.7,0.1,1c0,0.9,0,1.9,0,2.8c0,1.4-0.2,2.9-0.1,4.3c0.2,2,0.7,4,0.9,6
	c0.2,1.6,1.5,2.5,2.9,1.8c2.3-1.1,4.6-2.4,7.1-3.3c2.1-0.8,4-2,6.2-2.6c2.2-0.6,4.3-1.9,6.8-1.6c0.7,0.1,1.4-0.2,2.1-0.2
	c0.4,0,0.7,0.1,1.1,0.2c0.4,0.2,0.8,0.5,1.2,0.5c0.7,0.1,1.7-0.2,2.1,0.1c1.1,0.9,2.2,1,3.6,1.3c1.3,0.2,2.6,1.2,4,1.8
	c3.7,1.4,6.6,4,9.5,6.6c0.8,0.7,1.6,1.5,2.8,0.6c0.2-0.2,0.6-0.1,0.9-0.2c3.3-0.5,6.5,0.9,9.8,0.1c0.1,0,0.2,0.1,0.2,0.1
	c0.5,0,1.1-0.1,1.5,0c1.4,0.4,2.7,0.4,4.1,0c0,0,0.1,0,0.1,0.1c1.1,0.4,2.2-0.5,3.3,0.3c0,0,0.2-0.1,0.3-0.1
	c1.3-0.7,2.6-0.5,3.9-0.2c0.3,0.1,0.6,0.2,0.9,0.1c0.9-0.1,1.7-0.2,2.6-0.4c1.2-0.3,2.4-0.7,3.5-1.1c0.4-0.2,0.8-0.8,0.7-1.1
	c-0.1-2.2-0.4-4.4-0.7-6.6c0-0.2-0.3-0.4-0.4-0.6c-0.1-0.2-0.2-0.7-0.1-0.8c1.2-1.3-0.2-2.3-0.3-3.4c0-0.2-0.2-0.4-0.2-0.7
	C-148.5,308.8-148.6,306.8-148.7,304.9z M-249.5,332.5C-249.5,332.5-249.5,332.5-249.5,332.5c0,0.8,0,1.7,0,2.5
	c0,1.9,1.6,3.1,3.4,2.4c0.8-0.3,1.6-0.8,2.5-0.9c2.5-0.3,4.9-0.5,7.4-0.7c0.4,0,0.9,0,1.3,0c1.4-0.1,2.1-1,2.2-2.4
	c0-1,0.1-2,0.4-2.9c0.9-2.8-0.4-4.6-3.3-4.6c-2.3,0-4.6,0.1-6.9,0c-1.8-0.1-3.4,0.3-4.9,1.4c-1.3,0.9-2.4,1.9-2,3.7
	C-249.4,331.5-249.5,332-249.5,332.5z M-254.1,302.5c0-0.4,0.1-0.9,0-1.3c0-0.3-0.2-0.5-0.4-0.8c-0.3,0.1-0.6,0.2-0.8,0.5
	c-0.8,1.5-1.9,3-2.4,4.6c-0.8,2.6-1.8,5.2-0.8,8c0,0.1,0,0.2,0,0.4c-0.3,1.1-0.5,2.2-1,3.3c-1,2.1-0.1,4.2,0,6.3
	c0,0.1,0.4,0.3,0.6,0.3c1.1-0.1,2.2-0.2,3.3-0.3c1.6-0.1,2.2-1.2,1.7-2.8c-0.3-1,0-2.1,0-3.1c0-0.3,0.2-0.6,0.2-0.9
	c-0.1-1.9-0.1-3.9-0.3-5.8c-0.1-1.1-0.7-2.1-0.4-3.4C-253.8,306-254.1,304.2-254.1,302.5z M-246.4,301.7c0.1,0,0.1,0,0.2,0
	c0-0.9,0-1.8,0-2.6c0-0.9-0.1-1.9-1-2c-0.5-0.1-1.2,0.8-1.6,1.3c-2,2.4-1.1,5.4-1.5,8.2c-0.2,1.5,0,3.1,0.1,4.7
	c0.1,1.7-0.2,3.4,0.6,5c0.2,0.4-0.1,1-0.2,1.6c0,0.4-0.1,0.7-0.1,1.1c0,0.8,0.1,1.5,0.2,2.3c0.1,0.5,0,1,0.2,1.5
	c0.3,0.6,1.8,0.7,2.8,0.1c0.8-0.4,1-0.9,0.8-1.9c-0.3-1.1-1.3-2.3-0.4-3.7c0.5-0.7,0.5-1.7,0.5-2.6c0-1.9-0.3-3.7-0.4-5.6
	c0-0.9,0.4-1.9,0.3-2.8C-245.9,304.7-246.2,303.2-246.4,301.7z M-240.3,295.4c-0.3,0-0.6,0-0.8,0c-1.6,0-1.8,0.2-1.7,1.8
	c0.1,0.9,0.4,1.8,0.5,2.7c0,0.4-0.2,0.9-0.3,1.3c0,0.6,0,1.2,0,1.8c0,0.2,0.3,0.5,0.3,0.6c-0.6,0.9-1,1.9,0,2.8
	c-0.8,0.8-0.1,1.6,0,2.4c0.1,0.6-0.2,1.2-0.3,1.8c-0.1,0.3-0.2,0.7-0.2,1c0.1,0.6,0.3,1.3,0.3,1.9c0.1,1.8,0.2,3.6,0.3,5.4
	c0,0.4,0,0.9,0.3,1.3c0.2,0.4,0.7,0.6,1.1,0.8c0.2,0,0.5-0.5,0.7-0.8c0.2-0.3,0.2-0.6,0.4-0.8c0.5-0.5,0.5-0.9,0.3-1.6
	c-0.2-0.7,0-1.5,0-2.3c0-0.6,0.1-1.2,0.1-1.8c0-0.6-0.2-1.3,0.1-1.7c0.4-0.7,0.2-1.3,0-2c-0.2-0.7-0.2-1.6-0.1-2.4
	c0-0.6,0.4-1.2,0.4-1.7c-0.2-1.5,1.1-3,0-4.5c-0.1-0.1,0.1-0.4,0.2-0.6c0.1-0.5,0.3-1,0.3-1.5c0.1-0.9-0.1-1.9,0.2-2.8
	c0.3-1-0.1-1.2-0.9-1.1C-239.5,295.4-239.9,295.4-240.3,295.4z M-232.3,308c0.4-2-0.6-4.7,0.5-7.2c0-0.1,0-0.3-0.1-0.3
	c-0.7-1.1-0.5-2.3-0.2-3.4c0.1-0.4-0.1-0.9-0.2-1.4c-0.3-0.8-0.8-0.8-1.4-0.3c-0.9,0.8-1,2.1-0.6,3c0.5,1.1-0.2,1.8-0.3,2.7
	c-0.2,1.7-0.6,3.4-0.6,5.1c0,1.6,0.6,3.3-0.4,4.9c-0.1,0.2,0,0.7,0.1,1c0.1,0.6,0.3,1.2,0.4,1.8c0.2,2.1,0.4,4.1,0.7,6.2
	c0,0.2,0.1,0.5,0.3,0.5c0.5,0.2,1,0.3,1.5,0.5c0-0.5,0-0.9-0.1-1.4c0-0.3-0.2-0.8-0.1-1c0.3-0.6,0.5-1.1,0-1.8
	c-0.1-0.1,0-0.5,0.1-0.8c0.1-0.6,0.4-1.2,0.4-1.8C-232.2,312.3-232.3,310.5-232.3,308z"/>
    <path fill="#A6AAB7" id="XMLID_139_" d="M-193.3,393.3c-0.7,0.2-1.3,0.6-2,0.6c-0.7,0.1-1.5-0.1-2.2-0.1c-0.8,0-1.5-0.2-2.3,0
	c-1.5,0.3-2.8,0.5-4.3-0.1c-1-0.4-2.1-0.5-3.1-0.8c-1.5-0.5-3.1-1-4.6-1.7c-2.7-1.3-5.4-2.7-7.9-4.3c-1.4-0.9-2.6-2.2-3.8-3.4
	c-1.3-1.3-2.5-2.6-3.6-4c-0.5-0.6-0.8-1.4-1.2-2.1c-0.6-1.1-1.3-2.1-1.6-3.3c-0.6-2-1-4.2-1.4-6.2c-0.3-1.4-0.7-2.9-1-4.3
	c-0.2-0.9,0-1.8-0.1-2.6c-0.1-0.8-0.3-1.5-0.4-2.3c0-0.2-0.1-0.4-0.1-0.5c1.1-1.5,0-3.3,0.5-4.9c0.4-1.3,0.6-2.7,1-4
	c0.4-1.5,0.8-3.1,1.3-4.6c0.1-0.3,0.4-0.5,0.6-0.7c0.5-0.7,1-1.5,1.4-2.2c0.5-0.8,0.8-1.8,1.4-2.5c1.1-1.2,2.4-2.3,3.6-3.3
	c0.4-0.3,0.9-0.5,1.4-0.8c0.4-0.2,0.9-0.5,1.3-0.7c1.8-1,3.5-2,5.3-2.9c2.2-1,4.6-1.8,6.9-2.6c0.1,0,0.1-0.1,0.2-0.1
	c2-0.3,4-0.7,6.1-0.9c0.9-0.1,1.8,0.4,2.7,0.5c2.6,0.4,5.3,0.3,7.7,1.6c0.7,0.4,1.4,0.6,2.1,1c1.3,0.8,2.8,0.9,4.3,1.3
	c1,0.3,1.9,1.2,2.9,1.9c1.9,1.4,3.8,2.6,5.5,4.1c1.2,1,2.5,2.2,2.4,4.1c0,0.5,0.4,1,0.7,1.4c0.7,0.8,1.3,1.6,1.2,2.8
	c0,0.2,0,0.5,0.1,0.6c1.6,1.1,1.5,3.1,2.3,4.6c0.5,1,0.5,2.3,0.7,3.4c0.3,1.8,0.6,3.7,1,5.5c0,0.1,0.1,0.2,0.1,0.2
	c0.7,3.8,0.9,7.6,0.7,11.5c0,0.9-0.5,1.8-1,2.6c-2.1,3.4-4.3,6.6-7.4,9.2c-2.5,2.1-5.3,3.6-7.8,5.6c-0.6,0.5-1.2,1.2-2,1.5
	c-1.2,0.5-2.6,0.7-3.8,1.1c-0.5,0.1-1,0.3-1.5,0.5c-0.7,0.2-1.5,0.5-2.2,0.7C-193.2,393.5-193.2,393.4-193.3,393.3z M-201.9,383.9
	c1.4-0.3,2.8-0.6,4.1-0.9c0.9-0.2,1.7-0.5,2.5-0.8c0.3-0.1,0.7-0.3,1-0.4c0.6-0.3,1.1-0.6,1.7-0.8c2.1-0.6,4.1-1.2,5.8-2.5
	c0.4-0.3,0.9-0.7,1.1-1.2c1.2-2.2,2.5-4.3,3.5-6.6c0.7-1.5,1-3.2,1.1-4.9c0.1-1.1-0.5-2.2-0.4-3.2c0-1.4,1.2-2.6,0.7-4.3
	c-0.3-1.1,0.1-2.3-0.1-3.5c-0.2-1.2-1-2.4-1.2-3.6c-0.1-1.2-0.6-2-1.2-2.9c-0.2-0.3-0.2-0.7-0.4-1c-0.3-0.6-0.4-1.4-0.9-1.7
	c-2.1-1.2-4.2-2.2-6.4-3.2c-1.1-0.5-2.4-0.6-3.5-0.9c-1.8-0.4-3.6-0.9-5.4-1.2c-1.2-0.2-2.5-0.3-3.8-0.4c-0.7,0-1.4,0.1-2.1,0.1
	c-1.3,0.1-2.5,1.2-3.8,0.4c-0.1,0-0.3,0-0.3,0.1c-1.5,1-3.2,1.9-4.4,3.2c-2,2.2-3.9,4.7-4.9,7.5c-0.5,1.4-0.4,2.9-0.6,4.4
	c-0.1,0.6,0.1,1.3-0.1,1.7c-0.8,1.3-1.2,2.7-1.2,4.2c0,1.2-0.2,2.4,0.1,3.6c0.4,1.7,1.3,3.3,1.1,5.1c0,0.4,0.1,0.9,0.3,1.3
	c1.6,3.1,3.6,5.9,6,8.5c0.3,0.3,0.6,0.5,1,0.7c1,0.6,2,1.2,3,1.6c1.3,0.5,2.4,1.8,4,0.9c0.4-0.2,0.9,0,1.4,0.1
	C-203.3,383.5-202.6,383.7-201.9,383.9z M-214.6,384.8c0.1-0.2,0.2-0.4,0.3-0.6c-0.2-0.1-0.3-0.1-0.5-0.2c-2.4-1.4-3.8-3.7-5.3-5.9
	c-1.1-1.6-1.7-3.7-3-5.2c-0.2-0.3-0.3-0.6-0.4-1c-0.3-1.2-0.6-2.5-0.9-3.8c-0.2-0.9-0.7-1.8-0.6-2.7c0.2-3.2-0.3-6.4,0.5-9.6
	c0.5-2.1,0.5-4.4,1-6.6c0.4-1.5,0.6-3.1,2-4.1c0.3-0.2,0.6-0.6,0.7-0.9c0.7-1.8,2.2-2.8,3.6-4.1c1.5-1.3,2.9-2.5,4.9-2.9
	c1.4-0.3,2.7-1.1,4-1.2c1.8-0.1,3.7,0.2,5.6,0.3c0.3,0,0.6-0.1,0.9-0.2c1.4-0.3,2.8-0.3,4.2,0.4c1.1,0.6,2.5,1.3,3.5,1
	c1.8-0.5,2.9,0.3,4.2,1c0.7,0.3,1.2,0.8,2.1,0.5c0.2-0.1,0.7,0.2,1,0.4c0.6,0.4,1,1.1,1.7,1.3c2.8,1,4.6,3.1,6.2,5.4
	c0.3,0.4,0.4,0.9,0.6,1.4c0.6,1.8,1.2,3.5,1.7,5.3c0.3,1,1,2.4,0.6,3.2c-0.6,1.4,0,2.4,0.1,3.6c0,0.4-0.2,0.8-0.2,1.3
	c-0.2,1.1-0.4,2.1-0.5,3.2c0,0.5,0.2,1,0.2,1.5c-0.1,0.9-0.2,1.9-0.4,2.8c-0.4,2.1-0.9,4.2-1.4,6.2c-0.2,0.7-0.6,1.5-1.1,2.1
	c-1,1.2-2.2,2.2-3.2,3.4c-1.5,1.9-3.5,3.2-5.6,4.3c-0.3,0.2-0.7,0-1.1,0.1c-0.5,0-0.9,0.1-1.4,0.2c-0.9,0.3-1.8,0.9-2.6,0.8
	c-0.9-0.1-1.4,0-1.8,0.7c-0.6,0.8-1.3,1.1-2.3,0.9c-0.4-0.1-0.9,0-1.3,0c-2,0.2-4,0.9-6.1,0.2c-0.1,0-0.3-0.1-0.5,0
	c-0.3,0.1-0.6,0.3-0.9,0.4c0.2,0.3,0.3,0.6,0.6,0.7c1.6,0.8,3.2,1.4,5,1.3c1.1-0.1,2.3,0.2,3.5,0.1c1.5-0.1,3-0.3,4.4-0.7
	c0.9-0.2,1.7-0.7,2.6-1c1.2-0.5,2.4-0.9,3.6-1.4c0.2-0.1,0.2-0.3,0.4-0.4c0.8-0.6,1.7-1.2,2.5-1.8c1.3-1,2.7-1.8,3.9-2.9
	c1.2-1.1,2.2-2.4,3.3-3.6c1.3-1.4,2.5-2.7,2.9-4.6c0.3-1.7,2.2-3,1-5c0.6-0.9,0.1-1.7,0-2.5c-0.2-1.7-0.1-3.3-0.9-5
	c-0.7-1.5-0.4-3.5-0.6-5.2c-0.2-1.6,0.5-3.4-1.3-4.5c-0.1-0.1-0.1-0.2-0.2-0.3c-0.5-1.3-0.8-2.6-1.4-3.8c-1-1.8-2-3.7-3.3-5.3
	c-0.9-1.2-2-2.3-3.2-3.2c-1.2-0.9-2.5-1.7-3.8-2.3c-1.3-0.6-2.7-0.9-4-1.5c-1.5-0.6-2.9-1.6-4.7-1.4c-0.2,0-0.5-0.2-0.8-0.3
	c-0.8-0.2-1.5-0.5-2.3-0.6c-3.9-0.4-7.6,0.7-11.4,1.4c-3.3,0.6-5.7,2.8-8.6,4.1c-0.6,0.3-1.1,0.7-1.6,1.1c-0.4,0.3-1,0.6-1.3,1.1
	c-0.5,0.9-0.9,1.8-1.4,2.7c-0.7,1.2-1.6,2.3-2.2,3.5c-0.9,1.8-1.8,3.5-2.4,5.4c-0.5,1.5-0.7,3.1-0.6,4.6c0.1,2.4,0.7,4.7,0.9,7.1
	c0.2,1.7,0,3.4,0,5c0,0.4,0.1,0.9,0.3,1.3c0.6,1.4,1.3,2.7,1.8,4.2c0.6,1.9,1.5,3.6,2.9,4.9c2,1.9,4.1,3.7,6.2,5.4
	C-216,384.5-215.2,384.6-214.6,384.8z"/>
</svg>
