<?xml version="1.0" encoding="utf-8"?>
<!-- Generator: Adobe Illustrator 19.0.1, SVG Export Plug-In . SVG Version: 6.00 Build 0)  -->
<svg version="1.1" id="Layer_3" xmlns="http://www.w3.org/2000/svg" xmlns:xlink="http://www.w3.org/1999/xlink" x="0px" y="0px"
	 viewBox="-277 280 144.9 142" style="enable-background:new -277 280 144.9 142;" xml:space="preserve">
    <path fill="#A6AAB7" id="XMLID_167_" d="M-243.2,290.9c1.6,0,3.1,0,4.7,0c5-0.1,10,0,15,0c5.1,0,10.2,0,15.2,0c5,0,10.1,0.4,15.1-0.1
	c5.5-0.5,10.9-0.4,16.3-0.5c0.5,0,1,0.3,1.6,0.4c0.3,0.1,0.7,0.2,1,0.1c1.7-0.8,3.5-0.5,5.2-0.1c0.8,0.2,1.7,0.1,2.6,0.2
	c1.1,0.1,2.1,0.3,3.2,0.5c1.5,0.3,2.9,0.6,4.4,1c0.8,0.2,1.6,0.5,2.3,0.9c2.6,1.6,5.2,3.1,7.2,5.4c1.6,1.9,2.9,4,2.9,6.7
	c0,1.5,0.8,3,1.1,4.5c0.2,1.2,0.4,2.5,0.4,3.7c0,4.4-0.5,8.9,0.1,13.2c0.4,3.2,0.8,6.5,0.3,9.6c-0.6,4.3-0.2,8.6-0.4,12.9
	c-0.1,1,0.5,2.1,0.5,3.1c0,1.5-0.4,2.9,0,4.5c0.3,1.3-0.1,2.7,0.5,4c0.3,0.5,0,1.3,0.1,1.9c0.1,0.6,0.2,1.1,0.3,1.7
	c0.1,0.3,0.2,0.7,0.2,1c0,4,0.3,8-0.2,11.9c-0.3,2.5-0.1,5-0.4,7.4c-0.2,1.5-0.7,3-1,4.4c-0.1,0.3-0.1,0.6-0.1,0.9
	c0.2,2.4-0.5,4.7-1.6,6.8c-0.9,1.7-1.5,3.5-2.3,5.3c-0.2,0.4-0.5,0.7-0.8,1.1c-0.3,0.3-0.6,0.6-0.8,1c-1.4,2.9-3.9,4.8-6.6,6.4
	c-1.6,1-3.1,1.9-4.9,2.3c-2.8,0.7-5.7,0.2-8.6,0.6c-5.1,0.8-10.3,0.4-15.4,0.4c-1.9,0-3.7-0.6-5.6-0.9c-1.3-0.2-2.6-0.4-3.9-0.5
	c-11.1-1.1-22.2-0.6-33.3-0.6c-2.7,0-5.3,0.6-8,0.8c-1.3,0.1-2.6,0.2-3.9,0c-1.4-0.1-2.8-0.5-4.2-0.9c-2.1-0.5-4.2-0.8-6.2-1.6
	c-3.2-1.1-6.5-1.9-9.1-4.2c-0.7-0.7-1.4-1.5-2-2.3c-0.7-1-1.4-2.1-1.9-3.2c-0.4-1.1-0.5-2.3-0.8-3.5c-0.2-1-0.4-2.1-0.5-3.1
	c-0.2-1-0.4-2-0.4-3c0-4.2-0.1-8.5,0-12.7c0-1.7,0.5-3.5,0.8-5.2c0-0.1,0.1-0.2,0.1-0.2c0.2-1.6,0.3-3.3,0.5-4.9
	c0.1-0.9,0.4-1.8,0.5-2.8c0.1-0.4,0.1-0.8,0-1.2c-0.2-1-0.5-2.1-0.5-3.1c0-8.3,0.4-16.7-0.1-25c-0.6-8.9-0.1-17.8-0.4-26.8
	c0-1,0.3-2.1,0.5-3.1c0.3-1.2,0.6-2.3,0.9-3.5c0.2-0.7,0-1.5,0.3-2.1c1.5-2.5,3-5.1,5.7-6.4c1.4-0.7,2.9-1.1,4.3-1.7
	c0.6-0.2,1.2-0.6,1.8-0.9c1.6-0.8,3.3-1,5-0.9C-245.2,291-244.2,290.9-243.2,290.9z M-172.1,409.3c3.4-0.2,7.6,0.6,11.3-1.6
	c1.6-1,3.6-1.4,4.6-3.1c1.9-3.1,3.7-6.3,5.5-9.5c0.5-0.8,0.7-1.8,0.9-2.8c0.3-1.3,0.3-2.7,0.5-4c0.3-1.5,0.9-2.9,1-4.3
	c0.2-3.5,0-7,0.5-10.6c0.4-3.1,0.2-6.2-0.4-9.4c-0.4-2-0.4-4-0.7-6c-0.3-2.7-0.8-5.4-0.8-8.1c-0.1-3.6,0.4-7.2,0.4-10.8
	c-0.1-4.2,0.5-8.4-0.4-12.6c-0.5-2.4-0.4-4.8-0.6-7.3c-0.2-2.3,0.3-4.7-0.5-7c-0.4-1.3-0.1-2.9,0-4.4c0.2-3.4-1.4-6-3.9-7.9
	c-3.4-2.6-7.4-3.5-11.6-3.8c-0.4,0-0.7-0.1-1.1-0.1c-2.2-0.3-4.3-0.7-6.5-0.7c-7.8,0-15.7,0.2-23.5,0.3c-16.6,0-33.2,0-49.8,0
	c-0.6,0-1.3,0.2-1.9,0.3c-2.3,0.7-4.5,1.5-6.4,3c-2,1.6-3.9,3.1-3.7,6c0,0.3-0.2,0.7-0.3,1c-0.3,1.4-0.8,2.7-0.9,4.1
	c-0.4,3.6,0.5,7.2,0.6,10.8c0.3,8.9-0.6,17.8,0.6,26.7c0.2,1.9,0,3.8,0,5.7c0,2.7,0.1,5.4,0,8c-0.1,3.1-0.4,6.2-0.6,9.3
	c0,0.1,0,0.2-0.1,0.4c-0.9,2.1-0.6,4.3-1,6.5c-0.2,1.3,0,2.6,0,3.9c0,4.1,0,8.2-0.1,12.4c0,0.3,0,0.6,0.1,0.8
	c0.3,1.2,0.9,2.4,0.9,3.6c0,1.8,0.9,3,2.1,4c1.1,1,2.5,1.7,3.9,2.4c1.8,0.8,3.7,1.8,5.6,2.1c3.2,0.6,6.5,0.9,9.8,1
	c2.8,0.1,5.5-0.4,8.3-0.4c6.3,0.1,12.5,0.3,18.8,0.4c3.9,0.1,7.8-0.1,11.8,0c2.2,0.1,4.3,0.4,6.5,0.6c2.6,0.3,5.3,0.7,7.9,0.8
	c2.3,0.1,4.6,0,6.9,0C-176.5,409.3-174.6,409.3-172.1,409.3z"/>
    <path fill="#A6AAB7" id="XMLID_134_" d="M-213.1,382.7c-3.2,0-6.4,0.1-9.6,0c-1.6-0.1-3.1-0.7-4.7-0.9c-2.8-0.3-5.1-1.8-7.5-3.1
	c-1.1-0.5-1.9-1.6-2.8-2.4c-0.5-0.5-1.1-1-1.6-1.5c-0.3-0.3-0.4-0.6-0.6-0.9c0.3-0.1,0.7-0.3,1-0.3c1.1,0,2.2,0.1,3.2,0
	c1.5-0.1,3-0.5,4.5-0.6c1.7-0.2,3.2-0.6,4.6-1.5c1.8-1.2,3.7-2.5,5.5-3.8c0.2-0.1,0.4-0.6,0.3-0.8c-0.1-0.2-0.5-0.4-0.8-0.4
	c-0.7-0.1-1.4,0-2.2,0c-4.8-0.2-9-1.7-12.1-5.6c-0.9-1.1-1.3-2.7-1.9-4c-0.1-0.2-0.1-0.6-0.3-0.8c-0.4-0.6-0.4-1.1,0.2-1.4
	c0.5-0.2,1.1-0.3,1.6-0.1c1.4,0.3,2.7,0.8,4.1,1.2c0.2,0.1,0.5-0.2,0.8-0.3c-0.1-0.3-0.2-0.6-0.4-0.8c-0.8-0.6-1.6-1.1-2.4-1.8
	c-2.5-2.1-4.2-4.7-4.4-8.1c-0.1-1.3-0.4-2.6-0.6-3.8c0-0.3,0.2-0.8,0.4-0.9c0.3-0.1,0.8,0,1.1,0.2c1.2,1.1,2.3,2.3,3.5,3.4
	c0.2,0.2,0.4,0.5,0.7,0.7c0.5,0.2,1.1,0.3,1.7,0.5c-0.2-0.5-0.3-1-0.6-1.5c-0.7-1.3-1.5-2.6-2.2-4c-1.4-2.7-2.6-5.5-3.3-8.4
	c-0.7-2.8-1.1-5.6-0.1-8.4c0.1-0.4,0.2-0.8,0.5-1.1c0.9-1.3,1.9-1.2,2.8,0.1c1.7,2.7,3.5,5.5,5.4,8c1.5,2,3.5,3.6,5,5.6
	c2.7,3.6,6.7,5.4,10.6,7.2c0.9,0.4,1.8-0.1,1.7-1.1c-0.1-1-0.4-1.9-0.5-2.9c0-1.6,0.1-3.1,0.2-4.7c0.1-1.7,1-3.1,1.7-4.6
	c1.1-2.2,2.9-3.8,4.9-5.1c1.2-0.8,2.6-1.5,3.9-1.9c3.3-0.9,6.5-1.1,9.8,0.5c2.6,1.3,4.5,3.3,6.1,5.7c0.5,0.8,1.8,0.8,3.2,0.6
	c2.2-0.3,3.8-1.7,5.7-2.6c1.1-0.5,1.9-1.6,2.9-2.4c0.3-0.2,0.9-0.5,1.1-0.4c0.3,0.1,0.6,0.8,0.5,1.1c-0.6,1.7-1.2,3.5-2,5.1
	c-0.5,1-1.5,1.8-2.2,2.8c-0.2,0.2-0.3,0.8-0.1,0.9c0.2,0.2,0.7,0.4,1,0.3c1.9-0.6,3.7-1.3,5.6-1.9c0.3-0.1,0.7,0.1,1.1,0.1
	c-0.1,0.4,0,0.8-0.2,1.1c-0.8,0.9-1.5,1.9-2.4,2.7c-1.1,1-2.2,2-3.4,2.9c-0.7,0.6-1.5,1.1-2.3,1.5c-1,0.5-1.3,1.2-1.2,2.3
	c0.1,1.8,0.2,3.5,0,5.3c-0.1,1.3-0.5,2.6-0.8,3.9c-0.5,1.8-1.1,3.5-1.6,5.3c-0.7,2-1.2,4-2.1,5.9c-0.7,1.4-1.8,2.7-2.9,3.9
	c-2.8,3.1-5.5,6.4-8.6,9.1c-2,1.7-4.6,2.9-7,3.9c-2.7,1.2-5.7,1.9-8.5,2.7C-211.1,382.9-212.1,382.7-213.1,382.7
	C-213.1,382.7-213.1,382.7-213.1,382.7z"/>
</svg>
