<?xml version="1.0" encoding="utf-8"?>
<!-- Generator: Adobe Illustrator 19.1.0, SVG Export Plug-In . SVG Version: 6.00 Build 0)  -->
<svg version="1.1" id="Layer_1" xmlns="http://www.w3.org/2000/svg" xmlns:xlink="http://www.w3.org/1999/xlink" x="0px" y="0px"
	 viewBox="-279 1238.7 408 16" width="408" height="16" style="enable-background:new -279 1238.7 408 16;" xml:space="preserve">
    <path fill="#A6AAB7" d="M-259.8,1247.1c-5.5,0-10.9-0.1-16.2-0.4v-1c17,1,34.7,0.1,51.9-0.8c11.7-0.6,23.8-1.2,35.5-1.2
	c0.1,0,0.3,0,0.4,0c28.9,0,58.3,0,86.7,0h16.1c32.9,0,66.4,0.2,98.8,0.5c31.3,0.2,63.7,0.5,95.6,0.5v1c-31.9,0-64.3-0.3-95.6-0.5
	c-32.4-0.3-65.9-0.5-98.8-0.5h-16.1c-28.4,0-57.8,0-86.7,0c-0.1,0-0.3,0-0.4,0c-11.7,0-23.8,0.6-35.5,1.2
	C-235.8,1246.5-247.9,1247.1-259.8,1247.1z"/>
    <path fill="#A6AAB7" d="M-279,1254.7v-1c68.2,0,137.2-3.8,204-7.5s135.9-7.5,204-7.5v1c-68.1,0-137.2,3.8-203.9,7.5
	C-141.7,1250.9-210.8,1254.7-279,1254.7z"/>
</svg>
